<svg xmlns="http://www.w3.org/2000/svg" version="1.1" xmlns:xlink="http://www.w3.org/1999/xlink" width="512" height="512" x="0" y="0" viewBox="0 0 682.667 682.667" style="enable-background:new 0 0 512 512" xml:space="preserve" class="">
    <g>
        <defs>
            <clipPath id="a" clipPathUnits="userSpaceOnUse">
                <path d="M0 512h512V0H0Z" fill="#000000" opacity="1" data-original="#000000"></path>
            </clipPath>
        </defs>
        <path d="M0 0v0" style="stroke-width:20;stroke-linecap:round;stroke-linejoin:round;stroke-miterlimit:10;stroke-dasharray:none;stroke-opacity:1" transform="matrix(1.33333 0 0 -1.33333 573.264 109.404)" fill="none" stroke="#000000" stroke-width="20" stroke-linecap="round" stroke-linejoin="round" stroke-miterlimit="10" stroke-dasharray="none" stroke-opacity="" data-original="#000000" class=""></path>
        <g clip-path="url(#a)" transform="matrix(1.33333 0 0 -1.33333 0 682.667)">
            <path d="M0 0c-95.836 66.04-228.082 56.436-313.329-28.811v0c-87.279-87.278-95.257-223.817-23.954-320.112l-18.938-70.679 70.68 18.938c96.295-71.304 232.833-63.325 320.111 23.953h.001c85.248 85.249 94.851 217.498 28.807 313.335" style="stroke-width:20;stroke-linecap:round;stroke-linejoin:round;stroke-miterlimit:10;stroke-dasharray:none;stroke-opacity:1" transform="translate(395.377 458.758)" fill="none" stroke="#000000" stroke-width="20" stroke-linecap="round" stroke-linejoin="round" stroke-miterlimit="10" stroke-dasharray="none" stroke-opacity="" data-original="#000000" class=""></path><path d="M0 0c-14.592-.146-25.272 14.036-20.743 27.908C-16.19 41.852-8.226 54.541 2.738 65.013 20.735 82.2 44.374 91.033 69.289 89.887c21.764-1.001 42.736-10.538 59.051-26.853 16.315-16.315 25.851-37.287 26.853-59.051 1.636-35.567-17.838-68.883-49.614-84.876-11.744-5.91-19.04-17.561-19.04-30.405v0c0-11.843-9.601-21.443-21.443-21.443h-.084c-11.842 0-21.443 9.6-21.443 21.443v0c0 29.177 16.359 55.535 42.692 68.788 16.657 8.383 26.866 25.857 26.007 44.518-1.053 22.895-22.06 43.902-44.954 44.956-13.087.605-25.474-4.025-34.898-13.027-5.618-5.365-9.733-11.841-12.142-18.956C17.296 6.187 9.284.093 0 0Z" style="stroke-width:20;stroke-linecap:round;stroke-linejoin:round;stroke-miterlimit:10;stroke-dasharray:none;stroke-opacity:1" transform="translate(189.253 320.347)" fill="none" stroke="#000000" stroke-width="20" stroke-linecap="round" stroke-linejoin="round" stroke-miterlimit="10" stroke-dasharray="none" stroke-opacity="" data-original="#000000" class=""></path>
            <path d="M0 0c0-11.866-9.619-21.485-21.485-21.485S-42.97-11.866-42.97 0s9.619 21.485 21.485 21.485S0 11.866 0 0Z" style="stroke-width:20;stroke-linecap:round;stroke-linejoin:round;stroke-miterlimit:10;stroke-dasharray:none;stroke-opacity:1" transform="translate(275.792 123.151)" fill="none" stroke="#000000" stroke-width="20" stroke-linecap="round" stroke-linejoin="round" stroke-miterlimit="10" stroke-dasharray="none" stroke-opacity="" data-original="#000000" class=""></path>
        </g>
    </g>
</svg>